<svg width="211" height="64" viewBox="0 0 211 64" fill="none" xmlns="http://www.w3.org/2000/svg">
<rect width="210.83" height="63.78" rx="12" fill="#1F4B43"/>
<g clip-path="url(#clip0_2_4053)">
<path d="M40.867 33.1841C40.867 33.2851 40.7154 36.2665 44 37.833C43.3936 39.7027 41.2713 43.8463 38.7952 43.8463C37.3803 43.8463 36.5718 42.9367 34.9548 42.9367C33.2872 42.9367 32.3777 43.8463 31.1144 43.8463C28.6888 43.9474 26.3644 39.3995 25.7074 37.5298C25.2021 36.1149 25 34.7506 25 33.4367C25 28.9394 27.9814 26.7665 30.8112 26.716C32.1755 26.716 33.8936 27.6761 34.6516 27.6761C35.359 27.6761 37.3298 26.5139 39.1489 26.6654C41.0186 26.817 42.4335 27.5245 43.3936 28.8889C41.7261 29.95 40.867 31.3144 40.867 33.1841ZM38.0372 24.8968C37.0266 26.0591 35.8138 26.716 34.5 26.6149C34.3989 25.2506 34.9043 23.9873 35.8138 22.9766C36.6223 22.067 38.0372 21.3091 39.25 21.208C39.25 21.7639 39.4016 23.2798 38.0372 24.8968Z" fill="white"/>
</g>
<mask id="path-3-inside-1_2_4053" fill="white">
<path d="M59 13H172.17V50.78H59V13Z"/>
</mask>
<path d="M60 50.78V13H58V50.78H60Z" fill="white" fill-opacity="0.2" mask="url(#path-3-inside-1_2_4053)"/>
<path d="M78.5737 24.7002H76.644L76.6567 23.7036H78.5737C79.2339 23.7036 79.784 23.5661 80.2241 23.291C80.6642 23.0117 80.9943 22.6224 81.2144 22.123C81.4386 21.6195 81.5508 21.0312 81.5508 20.3584V19.7935C81.5508 19.2645 81.4873 18.7948 81.3604 18.3843C81.2334 17.9696 81.0472 17.6204 80.8018 17.3369C80.5563 17.0492 80.2559 16.8312 79.9004 16.6831C79.5492 16.535 79.145 16.4609 78.688 16.4609H76.606V15.458H78.688C79.2931 15.458 79.8454 15.5596 80.3447 15.7627C80.8441 15.9616 81.2736 16.2515 81.6333 16.6323C81.9972 17.009 82.2765 17.466 82.4712 18.0034C82.6659 18.5366 82.7632 19.1375 82.7632 19.8062V20.3584C82.7632 21.027 82.6659 21.63 82.4712 22.1675C82.2765 22.7007 81.9951 23.1556 81.627 23.5322C81.263 23.9089 80.8229 24.1987 80.3066 24.4019C79.7946 24.6007 79.217 24.7002 78.5737 24.7002ZM77.2979 15.458V24.7002H76.0728V15.458H77.2979ZM84.1152 21.3423V21.1963C84.1152 20.7012 84.1872 20.242 84.3311 19.8188C84.4749 19.3914 84.6823 19.0212 84.9531 18.708C85.224 18.3906 85.5519 18.1452 85.937 17.9717C86.3221 17.7939 86.7537 17.7051 87.2319 17.7051C87.7144 17.7051 88.1481 17.7939 88.5332 17.9717C88.9225 18.1452 89.2526 18.3906 89.5234 18.708C89.7985 19.0212 90.008 19.3914 90.1519 19.8188C90.2957 20.242 90.3677 20.7012 90.3677 21.1963V21.3423C90.3677 21.8374 90.2957 22.2965 90.1519 22.7197C90.008 23.1429 89.7985 23.5132 89.5234 23.8306C89.2526 24.1437 88.9246 24.3892 88.5396 24.5669C88.1587 24.7404 87.7271 24.8271 87.2446 24.8271C86.7622 24.8271 86.3285 24.7404 85.9434 24.5669C85.5583 24.3892 85.2282 24.1437 84.9531 23.8306C84.6823 23.5132 84.4749 23.1429 84.3311 22.7197C84.1872 22.2965 84.1152 21.8374 84.1152 21.3423ZM85.2896 21.1963V21.3423C85.2896 21.6851 85.3298 22.0088 85.4102 22.3135C85.4906 22.6139 85.6112 22.8805 85.772 23.1133C85.937 23.346 86.1423 23.5301 86.3877 23.6655C86.6331 23.7967 86.9188 23.8623 87.2446 23.8623C87.5662 23.8623 87.8477 23.7967 88.0889 23.6655C88.3343 23.5301 88.5374 23.346 88.6982 23.1133C88.859 22.8805 88.9797 22.6139 89.0601 22.3135C89.1447 22.0088 89.187 21.6851 89.187 21.3423V21.1963C89.187 20.8577 89.1447 20.5382 89.0601 20.2378C88.9797 19.9331 88.8569 19.6644 88.6919 19.4316C88.5311 19.1947 88.328 19.0085 88.0825 18.873C87.8413 18.7376 87.5578 18.6699 87.2319 18.6699C86.9103 18.6699 86.6268 18.7376 86.3813 18.873C86.1401 19.0085 85.937 19.1947 85.772 19.4316C85.6112 19.6644 85.4906 19.9331 85.4102 20.2378C85.3298 20.5382 85.2896 20.8577 85.2896 21.1963ZM93.5796 23.4814L95.3442 17.832H96.1187L95.9663 18.9556L94.1699 24.7002H93.4146L93.5796 23.4814ZM92.3926 17.832L93.897 23.5449L94.0049 24.7002H93.2114L91.2183 17.832H92.3926ZM97.8071 23.5005L99.2417 17.832H100.41L98.4165 24.7002H97.6294L97.8071 23.5005ZM96.29 17.832L98.0166 23.3862L98.2134 24.7002H97.4644L95.6172 18.9429L95.4648 17.832H96.29ZM102.79 19.2983V24.7002H101.616V17.832H102.727L102.79 19.2983ZM102.511 21.0059L102.022 20.9868C102.026 20.5171 102.096 20.0833 102.231 19.6855C102.367 19.2835 102.557 18.9344 102.803 18.6382C103.048 18.342 103.34 18.1134 103.679 17.9526C104.021 17.7876 104.4 17.7051 104.815 17.7051C105.153 17.7051 105.458 17.7516 105.729 17.8447C106 17.9336 106.23 18.0775 106.421 18.2764C106.616 18.4753 106.764 18.7334 106.865 19.0508C106.967 19.3639 107.018 19.7469 107.018 20.1997V24.7002H105.837V20.187C105.837 19.8273 105.784 19.5396 105.678 19.3237C105.572 19.1037 105.418 18.945 105.215 18.8477C105.012 18.7461 104.762 18.6953 104.466 18.6953C104.174 18.6953 103.907 18.7567 103.666 18.8794C103.429 19.0021 103.224 19.1714 103.05 19.3872C102.881 19.603 102.748 19.8506 102.65 20.1299C102.557 20.4049 102.511 20.6969 102.511 21.0059ZM110.077 14.9502V24.7002H108.896V14.9502H110.077ZM111.651 21.3423V21.1963C111.651 20.7012 111.723 20.242 111.867 19.8188C112.011 19.3914 112.218 19.0212 112.489 18.708C112.76 18.3906 113.088 18.1452 113.473 17.9717C113.858 17.7939 114.29 17.7051 114.768 17.7051C115.25 17.7051 115.684 17.7939 116.069 17.9717C116.459 18.1452 116.789 18.3906 117.06 18.708C117.335 19.0212 117.544 19.3914 117.688 19.8188C117.832 20.242 117.904 20.7012 117.904 21.1963V21.3423C117.904 21.8374 117.832 22.2965 117.688 22.7197C117.544 23.1429 117.335 23.5132 117.06 23.8306C116.789 24.1437 116.461 24.3892 116.076 24.5669C115.695 24.7404 115.263 24.8271 114.781 24.8271C114.298 24.8271 113.865 24.7404 113.479 24.5669C113.094 24.3892 112.764 24.1437 112.489 23.8306C112.218 23.5132 112.011 23.1429 111.867 22.7197C111.723 22.2965 111.651 21.8374 111.651 21.3423ZM112.826 21.1963V21.3423C112.826 21.6851 112.866 22.0088 112.946 22.3135C113.027 22.6139 113.147 22.8805 113.308 23.1133C113.473 23.346 113.678 23.5301 113.924 23.6655C114.169 23.7967 114.455 23.8623 114.781 23.8623C115.102 23.8623 115.384 23.7967 115.625 23.6655C115.87 23.5301 116.074 23.346 116.234 23.1133C116.395 22.8805 116.516 22.6139 116.596 22.3135C116.681 22.0088 116.723 21.6851 116.723 21.3423V21.1963C116.723 20.8577 116.681 20.5382 116.596 20.2378C116.516 19.9331 116.393 19.6644 116.228 19.4316C116.067 19.1947 115.864 19.0085 115.619 18.873C115.377 18.7376 115.094 18.6699 114.768 18.6699C114.446 18.6699 114.163 18.7376 113.917 18.873C113.676 19.0085 113.473 19.1947 113.308 19.4316C113.147 19.6644 113.027 19.9331 112.946 20.2378C112.866 20.5382 112.826 20.8577 112.826 21.1963ZM123.426 23.5259V19.9902C123.426 19.7194 123.371 19.4845 123.261 19.2856C123.155 19.0825 122.995 18.9259 122.779 18.8159C122.563 18.7059 122.296 18.6509 121.979 18.6509C121.683 18.6509 121.423 18.7017 121.198 18.8032C120.978 18.9048 120.805 19.0381 120.678 19.2031C120.555 19.3682 120.494 19.5459 120.494 19.7363H119.319C119.319 19.4909 119.383 19.2476 119.51 19.0063C119.637 18.7651 119.819 18.5472 120.056 18.3525C120.297 18.1536 120.585 17.9971 120.919 17.8828C121.257 17.7643 121.634 17.7051 122.049 17.7051C122.548 17.7051 122.988 17.7897 123.369 17.959C123.754 18.1283 124.055 18.3843 124.271 18.7271C124.491 19.0656 124.601 19.4909 124.601 20.0029V23.2021C124.601 23.4307 124.62 23.674 124.658 23.9321C124.7 24.1903 124.761 24.4124 124.842 24.5986V24.7002H123.617C123.557 24.5648 123.511 24.3849 123.477 24.1606C123.443 23.9321 123.426 23.7205 123.426 23.5259ZM123.629 20.5361L123.642 21.3613H122.455C122.121 21.3613 121.822 21.3888 121.56 21.4438C121.298 21.4946 121.078 21.5729 120.9 21.6787C120.722 21.7845 120.587 21.9178 120.494 22.0786C120.401 22.2352 120.354 22.4193 120.354 22.6309C120.354 22.8467 120.403 23.0435 120.5 23.2212C120.597 23.3989 120.743 23.5407 120.938 23.6465C121.137 23.748 121.38 23.7988 121.668 23.7988C122.028 23.7988 122.345 23.7227 122.62 23.5703C122.895 23.418 123.113 23.2318 123.274 23.0117C123.439 22.7917 123.528 22.578 123.541 22.3706L124.042 22.9355C124.012 23.1133 123.932 23.3101 123.801 23.5259C123.67 23.7417 123.494 23.9491 123.274 24.1479C123.058 24.3426 122.8 24.5055 122.5 24.6367C122.203 24.7637 121.869 24.8271 121.497 24.8271C121.031 24.8271 120.623 24.7362 120.271 24.5542C119.924 24.3722 119.654 24.1289 119.459 23.8242C119.269 23.5153 119.173 23.1704 119.173 22.7896C119.173 22.4214 119.245 22.0977 119.389 21.8184C119.533 21.5348 119.74 21.3 120.011 21.1138C120.282 20.9233 120.608 20.7795 120.989 20.6821C121.37 20.5848 121.795 20.5361 122.265 20.5361H123.629ZM130.777 23.3672V14.9502H131.958V24.7002H130.878L130.777 23.3672ZM126.156 21.3423V21.209C126.156 20.6842 126.219 20.2082 126.346 19.7808C126.477 19.3491 126.661 18.9788 126.898 18.6699C127.14 18.361 127.425 18.124 127.755 17.959C128.09 17.7897 128.462 17.7051 128.873 17.7051C129.304 17.7051 129.681 17.7812 130.002 17.9336C130.328 18.0817 130.603 18.2996 130.828 18.5874C131.056 18.8709 131.236 19.2137 131.367 19.6157C131.498 20.0177 131.589 20.4727 131.64 20.9805V21.5645C131.594 22.068 131.503 22.5208 131.367 22.9229C131.236 23.3249 131.056 23.6676 130.828 23.9512C130.603 24.2347 130.328 24.4526 130.002 24.605C129.677 24.7531 129.296 24.8271 128.86 24.8271C128.458 24.8271 128.09 24.7404 127.755 24.5669C127.425 24.3934 127.14 24.1501 126.898 23.8369C126.661 23.5238 126.477 23.1556 126.346 22.7324C126.219 22.305 126.156 21.8416 126.156 21.3423ZM127.336 21.209V21.3423C127.336 21.6851 127.37 22.0067 127.438 22.3071C127.51 22.6076 127.62 22.8721 127.768 23.1006C127.916 23.3291 128.104 23.509 128.333 23.6401C128.562 23.7671 128.834 23.8306 129.152 23.8306C129.541 23.8306 129.861 23.748 130.11 23.583C130.364 23.418 130.567 23.2 130.72 22.9292C130.872 22.6584 130.991 22.3643 131.075 22.0469V20.5171C131.024 20.2843 130.95 20.0601 130.853 19.8442C130.76 19.6242 130.637 19.4295 130.485 19.2603C130.337 19.0868 130.153 18.9492 129.933 18.8477C129.717 18.7461 129.461 18.6953 129.165 18.6953C128.843 18.6953 128.566 18.763 128.333 18.8984C128.104 19.0296 127.916 19.2116 127.768 19.4443C127.62 19.6729 127.51 19.9395 127.438 20.2441C127.37 20.5446 127.336 20.8662 127.336 21.209ZM136.699 21.3423V21.1963C136.699 20.7012 136.771 20.242 136.915 19.8188C137.059 19.3914 137.266 19.0212 137.537 18.708C137.808 18.3906 138.136 18.1452 138.521 17.9717C138.906 17.7939 139.338 17.7051 139.816 17.7051C140.298 17.7051 140.732 17.7939 141.117 17.9717C141.507 18.1452 141.837 18.3906 142.107 18.708C142.382 19.0212 142.592 19.3914 142.736 19.8188C142.88 20.242 142.952 20.7012 142.952 21.1963V21.3423C142.952 21.8374 142.88 22.2965 142.736 22.7197C142.592 23.1429 142.382 23.5132 142.107 23.8306C141.837 24.1437 141.509 24.3892 141.124 24.5669C140.743 24.7404 140.311 24.8271 139.829 24.8271C139.346 24.8271 138.912 24.7404 138.527 24.5669C138.142 24.3892 137.812 24.1437 137.537 23.8306C137.266 23.5132 137.059 23.1429 136.915 22.7197C136.771 22.2965 136.699 21.8374 136.699 21.3423ZM137.874 21.1963V21.3423C137.874 21.6851 137.914 22.0088 137.994 22.3135C138.075 22.6139 138.195 22.8805 138.356 23.1133C138.521 23.346 138.726 23.5301 138.972 23.6655C139.217 23.7967 139.503 23.8623 139.829 23.8623C140.15 23.8623 140.432 23.7967 140.673 23.6655C140.918 23.5301 141.121 23.346 141.282 23.1133C141.443 22.8805 141.564 22.6139 141.644 22.3135C141.729 22.0088 141.771 21.6851 141.771 21.3423V21.1963C141.771 20.8577 141.729 20.5382 141.644 20.2378C141.564 19.9331 141.441 19.6644 141.276 19.4316C141.115 19.1947 140.912 19.0085 140.667 18.873C140.425 18.7376 140.142 18.6699 139.816 18.6699C139.494 18.6699 139.211 18.7376 138.965 18.873C138.724 19.0085 138.521 19.1947 138.356 19.4316C138.195 19.6644 138.075 19.9331 137.994 20.2378C137.914 20.5382 137.874 20.8577 137.874 21.1963ZM145.599 19.2983V24.7002H144.424V17.832H145.535L145.599 19.2983ZM145.319 21.0059L144.831 20.9868C144.835 20.5171 144.905 20.0833 145.04 19.6855C145.175 19.2835 145.366 18.9344 145.611 18.6382C145.857 18.342 146.149 18.1134 146.487 17.9526C146.83 17.7876 147.209 17.7051 147.624 17.7051C147.962 17.7051 148.267 17.7516 148.538 17.8447C148.808 17.9336 149.039 18.0775 149.229 18.2764C149.424 18.4753 149.572 18.7334 149.674 19.0508C149.775 19.3639 149.826 19.7469 149.826 20.1997V24.7002H148.646V20.187C148.646 19.8273 148.593 19.5396 148.487 19.3237C148.381 19.1037 148.227 18.945 148.023 18.8477C147.82 18.7461 147.571 18.6953 147.274 18.6953C146.982 18.6953 146.716 18.7567 146.475 18.8794C146.238 19.0021 146.032 19.1714 145.859 19.3872C145.69 19.603 145.556 19.8506 145.459 20.1299C145.366 20.4049 145.319 20.6969 145.319 21.0059ZM157.71 17.832V18.7334H153.997V17.832H157.71ZM155.253 16.1626H156.428V22.999C156.428 23.2318 156.464 23.4074 156.536 23.5259C156.608 23.6444 156.701 23.7227 156.815 23.7607C156.929 23.7988 157.052 23.8179 157.183 23.8179C157.28 23.8179 157.382 23.8094 157.488 23.7925C157.598 23.7713 157.68 23.7544 157.735 23.7417L157.742 24.7002C157.649 24.7298 157.526 24.7573 157.374 24.7827C157.225 24.8123 157.046 24.8271 156.834 24.8271C156.546 24.8271 156.282 24.77 156.041 24.6558C155.799 24.5415 155.607 24.3511 155.463 24.0845C155.323 23.8136 155.253 23.4497 155.253 22.9927V16.1626ZM160.262 14.9502V24.7002H159.087V14.9502H160.262ZM159.982 21.0059L159.494 20.9868C159.498 20.5171 159.568 20.0833 159.703 19.6855C159.839 19.2835 160.029 18.9344 160.274 18.6382C160.52 18.342 160.812 18.1134 161.15 17.9526C161.493 17.7876 161.872 17.7051 162.287 17.7051C162.625 17.7051 162.93 17.7516 163.201 17.8447C163.472 17.9336 163.702 18.0775 163.893 18.2764C164.087 18.4753 164.235 18.7334 164.337 19.0508C164.438 19.3639 164.489 19.7469 164.489 20.1997V24.7002H163.309V20.187C163.309 19.8273 163.256 19.5396 163.15 19.3237C163.044 19.1037 162.89 18.945 162.687 18.8477C162.483 18.7461 162.234 18.6953 161.938 18.6953C161.646 18.6953 161.379 18.7567 161.138 18.8794C160.901 19.0021 160.695 19.1714 160.522 19.3872C160.353 19.603 160.219 19.8506 160.122 20.1299C160.029 20.4049 159.982 20.6969 159.982 21.0059ZM169.098 24.8271C168.619 24.8271 168.186 24.7467 167.796 24.5859C167.411 24.4209 167.079 24.1903 166.8 23.894C166.525 23.5978 166.313 23.2466 166.165 22.8403C166.017 22.4341 165.943 21.9897 165.943 21.5073V21.2407C165.943 20.6821 166.025 20.1849 166.19 19.749C166.355 19.3089 166.58 18.9365 166.863 18.6318C167.147 18.3271 167.468 18.0965 167.828 17.9399C168.188 17.7834 168.56 17.7051 168.945 17.7051C169.436 17.7051 169.859 17.7897 170.215 17.959C170.575 18.1283 170.869 18.3652 171.097 18.6699C171.326 18.9704 171.495 19.3258 171.605 19.7363C171.715 20.1426 171.77 20.5869 171.77 21.0693V21.5962H166.641V20.6377H170.596V20.5488C170.579 20.2441 170.515 19.9479 170.405 19.6602C170.299 19.3724 170.13 19.1354 169.897 18.9492C169.665 18.763 169.347 18.6699 168.945 18.6699C168.679 18.6699 168.433 18.7271 168.209 18.8413C167.985 18.9513 167.792 19.1164 167.631 19.3364C167.471 19.5565 167.346 19.8252 167.257 20.1426C167.168 20.46 167.124 20.826 167.124 21.2407V21.5073C167.124 21.8332 167.168 22.14 167.257 22.4277C167.35 22.7113 167.483 22.9609 167.657 23.1768C167.834 23.3926 168.048 23.5618 168.298 23.6846C168.552 23.8073 168.84 23.8687 169.161 23.8687C169.576 23.8687 169.927 23.784 170.215 23.6147C170.503 23.4455 170.754 23.2191 170.97 22.9355L171.681 23.5005C171.533 23.7248 171.345 23.9385 171.116 24.1416C170.888 24.3447 170.606 24.5098 170.272 24.6367C169.942 24.7637 169.55 24.8271 169.098 24.8271Z" fill="white"/>
<a href="https://www.figma.com/design/RhatwoeMvs9Uc6nbooAp98/65--Real-Estate-Website-Templates--Community-?node-id=2-3581">
<rect fill="black" fill-opacity="0" y="0.182813" width="97.2461" height="15.2344"/>
</a>
<path d="M80.5859 36.6309L77.1875 46.4902H75.1328L79.4141 35.1152H80.7266L80.5859 36.6309ZM83.4297 46.4902L80.0234 36.6309L79.875 35.1152H81.1953L85.4922 46.4902H83.4297ZM83.2656 42.2715V43.8262H77.0781V42.2715H83.2656ZM88.3281 39.6621V49.7402H86.4453V38.0371H88.1797L88.3281 39.6621ZM93.8359 42.1855V42.3496C93.8359 42.9642 93.763 43.5345 93.6172 44.0605C93.4766 44.5814 93.2656 45.0371 92.9844 45.4277C92.7083 45.8132 92.3672 46.1126 91.9609 46.3262C91.5547 46.5397 91.0859 46.6465 90.5547 46.6465C90.0286 46.6465 89.5677 46.5501 89.1719 46.3574C88.7812 46.1595 88.4505 45.8809 88.1797 45.5215C87.9089 45.1621 87.6901 44.7402 87.5234 44.2559C87.362 43.7663 87.2474 43.2298 87.1797 42.6465V42.0137C87.2474 41.3939 87.362 40.8314 87.5234 40.3262C87.6901 39.821 87.9089 39.3861 88.1797 39.0215C88.4505 38.6569 88.7812 38.3757 89.1719 38.1777C89.5625 37.9798 90.0182 37.8809 90.5391 37.8809C91.0703 37.8809 91.5417 37.985 91.9531 38.1934C92.3646 38.3965 92.7109 38.6882 92.9922 39.0684C93.2734 39.4434 93.4844 39.8965 93.625 40.4277C93.7656 40.9538 93.8359 41.5397 93.8359 42.1855ZM91.9531 42.3496V42.1855C91.9531 41.7949 91.9167 41.4329 91.8438 41.0996C91.7708 40.7611 91.6562 40.4642 91.5 40.209C91.3438 39.9538 91.1432 39.7559 90.8984 39.6152C90.6589 39.4694 90.3698 39.3965 90.0312 39.3965C89.6979 39.3965 89.4115 39.4538 89.1719 39.5684C88.9323 39.6777 88.7318 39.8314 88.5703 40.0293C88.4089 40.2272 88.2839 40.459 88.1953 40.7246C88.1068 40.985 88.0443 41.2689 88.0078 41.5762V43.0918C88.0703 43.4668 88.1771 43.8105 88.3281 44.123C88.4792 44.4355 88.6927 44.6855 88.9688 44.873C89.25 45.0553 89.6094 45.1465 90.0469 45.1465C90.3854 45.1465 90.6745 45.0736 90.9141 44.9277C91.1536 44.7819 91.349 44.5814 91.5 44.3262C91.6562 44.0658 91.7708 43.7663 91.8438 43.4277C91.9167 43.0892 91.9531 42.7298 91.9531 42.3496ZM97.3281 39.6621V49.7402H95.4453V38.0371H97.1797L97.3281 39.6621ZM102.836 42.1855V42.3496C102.836 42.9642 102.763 43.5345 102.617 44.0605C102.477 44.5814 102.266 45.0371 101.984 45.4277C101.708 45.8132 101.367 46.1126 100.961 46.3262C100.555 46.5397 100.086 46.6465 99.5547 46.6465C99.0286 46.6465 98.5677 46.5501 98.1719 46.3574C97.7812 46.1595 97.4505 45.8809 97.1797 45.5215C96.9089 45.1621 96.6901 44.7402 96.5234 44.2559C96.362 43.7663 96.2474 43.2298 96.1797 42.6465V42.0137C96.2474 41.3939 96.362 40.8314 96.5234 40.3262C96.6901 39.821 96.9089 39.3861 97.1797 39.0215C97.4505 38.6569 97.7812 38.3757 98.1719 38.1777C98.5625 37.9798 99.0182 37.8809 99.5391 37.8809C100.07 37.8809 100.542 37.985 100.953 38.1934C101.365 38.3965 101.711 38.6882 101.992 39.0684C102.273 39.4434 102.484 39.8965 102.625 40.4277C102.766 40.9538 102.836 41.5397 102.836 42.1855ZM100.953 42.3496V42.1855C100.953 41.7949 100.917 41.4329 100.844 41.0996C100.771 40.7611 100.656 40.4642 100.5 40.209C100.344 39.9538 100.143 39.7559 99.8984 39.6152C99.6589 39.4694 99.3698 39.3965 99.0312 39.3965C98.6979 39.3965 98.4115 39.4538 98.1719 39.5684C97.9323 39.6777 97.7318 39.8314 97.5703 40.0293C97.4089 40.2272 97.2839 40.459 97.1953 40.7246C97.1068 40.985 97.0443 41.2689 97.0078 41.5762V43.0918C97.0703 43.4668 97.1771 43.8105 97.3281 44.123C97.4792 44.4355 97.6927 44.6855 97.9688 44.873C98.25 45.0553 98.6094 45.1465 99.0469 45.1465C99.3854 45.1465 99.6745 45.0736 99.9141 44.9277C100.154 44.7819 100.349 44.5814 100.5 44.3262C100.656 44.0658 100.771 43.7663 100.844 43.4277C100.917 43.0892 100.953 42.7298 100.953 42.3496ZM106.453 34.4902V46.4902H104.562V34.4902H106.453ZM112.242 46.6465C111.617 46.6465 111.052 46.5449 110.547 46.3418C110.047 46.1335 109.62 45.8444 109.266 45.4746C108.917 45.1048 108.648 44.6699 108.461 44.1699C108.273 43.6699 108.18 43.1309 108.18 42.5527V42.2402C108.18 41.5788 108.276 40.9798 108.469 40.4434C108.661 39.9069 108.93 39.4486 109.273 39.0684C109.617 38.6829 110.023 38.3887 110.492 38.1855C110.961 37.9824 111.469 37.8809 112.016 37.8809C112.62 37.8809 113.148 37.9824 113.602 38.1855C114.055 38.3887 114.43 38.6751 114.727 39.0449C115.029 39.4095 115.253 39.8444 115.398 40.3496C115.549 40.8548 115.625 41.4121 115.625 42.0215V42.8262H109.094V41.4746H113.766V41.3262C113.755 40.9876 113.688 40.6699 113.562 40.373C113.443 40.0762 113.258 39.8366 113.008 39.6543C112.758 39.472 112.424 39.3809 112.008 39.3809C111.695 39.3809 111.417 39.4486 111.172 39.584C110.932 39.7142 110.732 39.9043 110.57 40.1543C110.409 40.4043 110.284 40.7064 110.195 41.0605C110.112 41.4095 110.07 41.8027 110.07 42.2402V42.5527C110.07 42.9225 110.12 43.2663 110.219 43.584C110.323 43.8965 110.474 44.1699 110.672 44.4043C110.87 44.6387 111.109 44.8236 111.391 44.959C111.672 45.0892 111.992 45.1543 112.352 45.1543C112.805 45.1543 113.208 45.0632 113.562 44.8809C113.917 44.6986 114.224 44.4408 114.484 44.1074L115.477 45.0684C115.294 45.334 115.057 45.5892 114.766 45.834C114.474 46.0736 114.117 46.2689 113.695 46.4199C113.279 46.571 112.794 46.6465 112.242 46.6465ZM127.25 43.5605C127.25 43.3262 127.214 43.1178 127.141 42.9355C127.073 42.7533 126.951 42.5866 126.773 42.4355C126.596 42.2845 126.346 42.1387 126.023 41.998C125.706 41.8522 125.299 41.7038 124.805 41.5527C124.263 41.3861 123.763 41.2012 123.305 40.998C122.852 40.7897 122.456 40.5501 122.117 40.2793C121.779 40.0033 121.516 39.6882 121.328 39.334C121.141 38.9746 121.047 38.5605 121.047 38.0918C121.047 37.6283 121.143 37.2064 121.336 36.8262C121.534 36.446 121.812 36.1178 122.172 35.8418C122.536 35.5605 122.966 35.3444 123.461 35.1934C123.956 35.0371 124.503 34.959 125.102 34.959C125.945 34.959 126.672 35.1152 127.281 35.4277C127.896 35.7402 128.367 36.1595 128.695 36.6855C129.029 37.2116 129.195 37.7923 129.195 38.4277H127.25C127.25 38.0527 127.169 37.722 127.008 37.4355C126.852 37.1439 126.612 36.9147 126.289 36.748C125.971 36.5814 125.568 36.498 125.078 36.498C124.615 36.498 124.229 36.5684 123.922 36.709C123.615 36.8496 123.385 37.0397 123.234 37.2793C123.083 37.5189 123.008 37.7897 123.008 38.0918C123.008 38.3053 123.057 38.5007 123.156 38.6777C123.255 38.8496 123.406 39.0111 123.609 39.1621C123.812 39.3079 124.068 39.446 124.375 39.5762C124.682 39.7064 125.044 39.8314 125.461 39.9512C126.091 40.1387 126.641 40.347 127.109 40.5762C127.578 40.8001 127.969 41.0553 128.281 41.3418C128.594 41.6283 128.828 41.9538 128.984 42.3184C129.141 42.6777 129.219 43.0866 129.219 43.5449C129.219 44.0241 129.122 44.4564 128.93 44.8418C128.737 45.222 128.461 45.5475 128.102 45.8184C127.747 46.084 127.32 46.2897 126.82 46.4355C126.326 46.5762 125.773 46.6465 125.164 46.6465C124.617 46.6465 124.078 46.5736 123.547 46.4277C123.021 46.2819 122.542 46.0605 122.109 45.7637C121.677 45.4616 121.333 45.0866 121.078 44.6387C120.823 44.1855 120.695 43.6569 120.695 43.0527H122.656C122.656 43.4225 122.719 43.7376 122.844 43.998C122.974 44.2585 123.154 44.472 123.383 44.6387C123.612 44.8001 123.878 44.9199 124.18 44.998C124.487 45.0762 124.815 45.1152 125.164 45.1152C125.622 45.1152 126.005 45.0501 126.312 44.9199C126.625 44.7897 126.859 44.6074 127.016 44.373C127.172 44.1387 127.25 43.8678 127.25 43.5605ZM134.641 38.0371V39.4121H129.875V38.0371H134.641ZM131.25 35.9668H133.133V44.1543C133.133 44.4147 133.169 44.6152 133.242 44.7559C133.32 44.8913 133.427 44.9824 133.562 45.0293C133.698 45.0762 133.857 45.0996 134.039 45.0996C134.169 45.0996 134.294 45.0918 134.414 45.0762C134.534 45.0605 134.63 45.0449 134.703 45.0293L134.711 46.4668C134.555 46.5137 134.372 46.5553 134.164 46.5918C133.961 46.6283 133.727 46.6465 133.461 46.6465C133.029 46.6465 132.646 46.571 132.312 46.4199C131.979 46.2637 131.719 46.0111 131.531 45.6621C131.344 45.3132 131.25 44.8496 131.25 44.2715V35.9668ZM135.547 42.3574V42.1777C135.547 41.5684 135.635 41.0033 135.812 40.4824C135.99 39.9564 136.245 39.5007 136.578 39.1152C136.917 38.7246 137.328 38.4225 137.812 38.209C138.302 37.9902 138.854 37.8809 139.469 37.8809C140.089 37.8809 140.641 37.9902 141.125 38.209C141.615 38.4225 142.029 38.7246 142.367 39.1152C142.706 39.5007 142.964 39.9564 143.141 40.4824C143.318 41.0033 143.406 41.5684 143.406 42.1777V42.3574C143.406 42.9668 143.318 43.5319 143.141 44.0527C142.964 44.5736 142.706 45.0293 142.367 45.4199C142.029 45.8053 141.617 46.1074 141.133 46.3262C140.648 46.5397 140.099 46.6465 139.484 46.6465C138.865 46.6465 138.31 46.5397 137.82 46.3262C137.336 46.1074 136.924 45.8053 136.586 45.4199C136.247 45.0293 135.99 44.5736 135.812 44.0527C135.635 43.5319 135.547 42.9668 135.547 42.3574ZM137.43 42.1777V42.3574C137.43 42.7376 137.469 43.097 137.547 43.4355C137.625 43.7741 137.747 44.071 137.914 44.3262C138.081 44.5814 138.294 44.7819 138.555 44.9277C138.815 45.0736 139.125 45.1465 139.484 45.1465C139.833 45.1465 140.135 45.0736 140.391 44.9277C140.651 44.7819 140.865 44.5814 141.031 44.3262C141.198 44.071 141.32 43.7741 141.398 43.4355C141.482 43.097 141.523 42.7376 141.523 42.3574V42.1777C141.523 41.8027 141.482 41.4486 141.398 41.1152C141.32 40.7767 141.195 40.4772 141.023 40.2168C140.857 39.9564 140.643 39.7533 140.383 39.6074C140.128 39.4564 139.823 39.3809 139.469 39.3809C139.115 39.3809 138.807 39.4564 138.547 39.6074C138.292 39.7533 138.081 39.9564 137.914 40.2168C137.747 40.4772 137.625 40.7767 137.547 41.1152C137.469 41.4486 137.43 41.8027 137.43 42.1777ZM146.875 39.6465V46.4902H144.992V38.0371H146.789L146.875 39.6465ZM149.461 37.9824L149.445 39.7324C149.331 39.7116 149.206 39.696 149.07 39.6855C148.94 39.6751 148.81 39.6699 148.68 39.6699C148.357 39.6699 148.073 39.7168 147.828 39.8105C147.583 39.8991 147.378 40.0293 147.211 40.2012C147.049 40.3678 146.924 40.571 146.836 40.8105C146.747 41.0501 146.695 41.3184 146.68 41.6152L146.25 41.6465C146.25 41.1152 146.302 40.623 146.406 40.1699C146.51 39.7168 146.667 39.3184 146.875 38.9746C147.089 38.6309 147.354 38.3626 147.672 38.1699C147.995 37.9772 148.367 37.8809 148.789 37.8809C148.904 37.8809 149.026 37.8913 149.156 37.9121C149.292 37.9329 149.393 37.9564 149.461 37.9824ZM154.211 46.6465C153.586 46.6465 153.021 46.5449 152.516 46.3418C152.016 46.1335 151.589 45.8444 151.234 45.4746C150.885 45.1048 150.617 44.6699 150.43 44.1699C150.242 43.6699 150.148 43.1309 150.148 42.5527V42.2402C150.148 41.5788 150.245 40.9798 150.438 40.4434C150.63 39.9069 150.898 39.4486 151.242 39.0684C151.586 38.6829 151.992 38.3887 152.461 38.1855C152.93 37.9824 153.438 37.8809 153.984 37.8809C154.589 37.8809 155.117 37.9824 155.57 38.1855C156.023 38.3887 156.398 38.6751 156.695 39.0449C156.997 39.4095 157.221 39.8444 157.367 40.3496C157.518 40.8548 157.594 41.4121 157.594 42.0215V42.8262H151.062V41.4746H155.734V41.3262C155.724 40.9876 155.656 40.6699 155.531 40.373C155.411 40.0762 155.227 39.8366 154.977 39.6543C154.727 39.472 154.393 39.3809 153.977 39.3809C153.664 39.3809 153.385 39.4486 153.141 39.584C152.901 39.7142 152.701 39.9043 152.539 40.1543C152.378 40.4043 152.253 40.7064 152.164 41.0605C152.081 41.4095 152.039 41.8027 152.039 42.2402V42.5527C152.039 42.9225 152.089 43.2663 152.188 43.584C152.292 43.8965 152.443 44.1699 152.641 44.4043C152.839 44.6387 153.078 44.8236 153.359 44.959C153.641 45.0892 153.961 45.1543 154.32 45.1543C154.773 45.1543 155.177 45.0632 155.531 44.8809C155.885 44.6986 156.193 44.4408 156.453 44.1074L157.445 45.0684C157.263 45.334 157.026 45.5892 156.734 45.834C156.443 46.0736 156.086 46.2689 155.664 46.4199C155.247 46.571 154.763 46.6465 154.211 46.6465Z" fill="white"/>
<a href="https://www.figma.com/design/RhatwoeMvs9Uc6nbooAp98/65--Real-Estate-Website-Templates--Community-?node-id=2-3581">
<rect fill="black" fill-opacity="0" y="0.225" width="83.0859" height="18.75"/>
</a>
<defs>
<clipPath id="clip0_2_4053">
<rect width="19" height="24" fill="white" transform="translate(25 20.6699)"/>
</clipPath>
</defs>
</svg>
