<svg width="18" height="20" viewBox="0 0 18 20" fill="none" xmlns="http://www.w3.org/2000/svg">
<path d="M14.8 2.53333C13.9556 1.73333 13.0111 1.11111 11.9667 0.666666C10.9222 0.222221 9.82222 -1.90735e-06 8.66667 -1.90735e-06C7.51111 -1.90735e-06 6.4 0.222221 5.33333 0.666666C4.26667 1.11111 3.33333 1.73333 2.53333 2.53333C1.73333 3.33333 1.11111 4.26667 0.666667 5.33333C0.222222 6.4 0 7.51111 0 8.66667C0 9.82222 0.222222 10.9222 0.666667 11.9667C1.11111 13.0111 1.73333 13.9556 2.53333 14.8L7.13333 19.4C7.53333 19.8 8.03333 20 8.63333 20C9.23333 20 9.75556 19.8 10.2 19.4L14.8 14.8C15.6 13.9556 16.2222 13.0111 16.6667 11.9667C17.1111 10.9222 17.3333 9.82222 17.3333 8.66667C17.3333 7.51111 17.1111 6.4 16.6667 5.33333C16.2222 4.26667 15.6 3.33333 14.8 2.53333ZM13.9333 13.9333L9.33333 18.5333C9.15556 18.7111 8.93333 18.8 8.66667 18.8C8.4 18.8 8.15556 18.7111 7.93333 18.5333L3.33333 13.9333C2.62222 13.2222 2.08889 12.4111 1.73333 11.5C1.37778 10.5889 1.2 9.63333 1.2 8.63333C1.2 7.63333 1.37778 6.67778 1.73333 5.76667C2.08889 4.85555 2.62222 4.05555 3.33333 3.36666C4.04444 2.67778 4.85556 2.14444 5.76667 1.76667C6.67778 1.38889 7.63333 1.2 8.63333 1.2C9.63333 1.2 10.5889 1.38889 11.5 1.76667C12.4111 2.14444 13.2222 2.66667 13.9333 3.33333C14.9111 4.31111 15.5667 5.44444 15.9 6.73333C16.2333 8.02222 16.2333 9.31111 15.9 10.6C15.5667 11.8889 14.9111 13 13.9333 13.9333ZM8.66667 5.53333C7.82222 5.53333 7.08889 5.84444 6.46667 6.46667C5.84444 7.08889 5.53333 7.82222 5.53333 8.66667C5.53333 9.51111 5.84444 10.2333 6.46667 10.8333C7.08889 11.4333 7.82222 11.7333 8.66667 11.7333C9.51111 11.7333 10.2333 11.4333 10.8333 10.8333C11.4333 10.2333 11.7333 9.51111 11.7333 8.66667C11.7333 7.82222 11.4333 7.08889 10.8333 6.46667C10.2333 5.84444 9.51111 5.53333 8.66667 5.53333ZM8.66667 10.6C8.13333 10.6 7.67778 10.4111 7.3 10.0333C6.92222 9.65555 6.73333 9.2 6.73333 8.66667C6.73333 8.13333 6.92222 7.67778 7.3 7.3C7.67778 6.92222 8.13333 6.73333 8.66667 6.73333C9.2 6.73333 9.65556 6.92222 10.0333 7.3C10.4111 7.67778 10.6 8.13333 10.6 8.66667C10.6 9.2 10.4111 9.65555 10.0333 10.0333C9.65556 10.4111 9.2 10.6 8.66667 10.6Z" fill="#1A1A1A"/>
</svg>
