<svg width="15" height="13" viewBox="0 0 15 13" fill="none" xmlns="http://www.w3.org/2000/svg">
<path d="M13.4474 3.01758C13.4474 3.16406 13.4474 3.28125 13.4474 3.42773C13.4474 7.5 10.3712 12.1582 4.71694 12.1582C2.95913 12.1582 1.3478 11.6602 0.000140667 10.7812C0.234516 10.8105 0.468891 10.8398 0.732563 10.8398C2.16811 10.8398 3.48647 10.3418 4.54116 9.52148C3.1935 9.49219 2.05092 8.61328 1.67006 7.38281C1.87514 7.41211 2.05092 7.44141 2.256 7.44141C2.51967 7.44141 2.81264 7.38281 3.04702 7.32422C1.64077 7.03125 0.586078 5.80078 0.586078 4.30664V4.27734C0.996234 4.51172 1.49428 4.62891 1.99233 4.6582C1.14272 4.10156 0.615375 3.16406 0.615375 2.10938C0.615375 1.52344 0.761859 0.996094 1.02553 0.556641C2.54897 2.40234 4.83413 3.63281 7.38295 3.7793C7.32436 3.54492 7.29506 3.31055 7.29506 3.07617C7.29506 1.37695 8.67202 0 10.3712 0C11.2501 0 12.0412 0.351562 12.6271 0.966797C13.3009 0.820312 13.9748 0.556641 14.5607 0.205078C14.3263 0.9375 13.8576 1.52344 13.213 1.9043C13.8283 1.8457 14.4435 1.66992 14.9708 1.43555C14.5607 2.05078 14.0333 2.57812 13.4474 3.01758Z" fill="#1A1A1A"/>
<a href="https://www.figma.com/design/RhatwoeMvs9Uc6nbooAp98/65--Real-Estate-Website-Templates--Community-?node-id=2-3581">
<rect fill="black" fill-opacity="0" x="-0.744" y="-1.125" width="15" height="17.25"/>
</a>
</svg>
