<svg width="211" height="64" viewBox="0 0 211 64" fill="none" xmlns="http://www.w3.org/2000/svg">
<rect width="210.83" height="63.78" rx="12" fill="#1F4B43"/>
<g clip-path="url(#clip0_2_4059)">
<path d="M37.8906 32.125L28.3945 22.5859L40.4688 29.5469L37.8906 32.125ZM25.9453 22.0273L36.9453 33.0273L25.9453 44.0273C25.3867 43.7695 25 43.2109 25 42.5234V23.5742C25 22.8867 25.3867 22.3281 25.9453 22.0273ZM44.207 31.7383C45.0234 32.3398 45.0234 33.7578 44.25 34.3594L41.6719 35.8203L38.8359 33.0273L41.6719 30.2773L44.207 31.7383ZM28.3945 43.4687L37.8906 33.9726L40.4688 36.5508L28.3945 43.4687Z" fill="white"/>
</g>
<mask id="path-3-inside-1_2_4059" fill="white">
<path d="M60 13H161.48V50.78H60V13Z"/>
</mask>
<path d="M61 50.78V13H59V50.78H61Z" fill="white" fill-opacity="0.2" mask="url(#path-3-inside-1_2_4059)"/>
<path d="M83.9028 20.0981V23.4814C83.7886 23.6507 83.6066 23.8411 83.3569 24.0527C83.1073 24.2601 82.7624 24.4421 82.3223 24.5986C81.8864 24.751 81.3236 24.8271 80.6338 24.8271C80.071 24.8271 79.5526 24.7298 79.0786 24.5352C78.6089 24.3363 78.2005 24.0485 77.8535 23.6719C77.5107 23.291 77.2441 22.8298 77.0537 22.2881C76.8675 21.7422 76.7744 21.1243 76.7744 20.4346V19.7173C76.7744 19.0275 76.8548 18.4118 77.0156 17.8701C77.1807 17.3285 77.4219 16.8693 77.7393 16.4927C78.0566 16.1118 78.446 15.8241 78.9072 15.6294C79.3685 15.4305 79.8975 15.3311 80.4941 15.3311C81.2008 15.3311 81.7912 15.4538 82.2651 15.6992C82.7433 15.9404 83.1157 16.2747 83.3823 16.7021C83.6532 17.1296 83.8267 17.6162 83.9028 18.1621H82.6777C82.6227 17.8278 82.5127 17.5231 82.3477 17.248C82.1868 16.973 81.9562 16.7529 81.6558 16.5879C81.3553 16.4186 80.9681 16.334 80.4941 16.334C80.0667 16.334 79.6965 16.4123 79.3833 16.5688C79.0701 16.7254 78.812 16.9497 78.6089 17.2417C78.4058 17.5337 78.2534 17.887 78.1519 18.3018C78.0545 18.7165 78.0059 19.1841 78.0059 19.7046V20.4346C78.0059 20.9678 78.0672 21.4438 78.1899 21.8628C78.3169 22.2817 78.4967 22.6393 78.7295 22.9355C78.9622 23.2275 79.2394 23.4497 79.561 23.6021C79.8869 23.7544 80.2466 23.8306 80.6401 23.8306C81.076 23.8306 81.4294 23.7946 81.7002 23.7227C81.971 23.6465 82.1826 23.5576 82.335 23.4561C82.4873 23.3503 82.6037 23.2508 82.6841 23.1577V21.0884H80.5449V20.0981H83.9028ZM88.6064 24.8271C88.1283 24.8271 87.6945 24.7467 87.3052 24.5859C86.9201 24.4209 86.5879 24.1903 86.3086 23.894C86.0335 23.5978 85.8219 23.2466 85.6738 22.8403C85.5257 22.4341 85.4517 21.9897 85.4517 21.5073V21.2407C85.4517 20.6821 85.5342 20.1849 85.6992 19.749C85.8643 19.3089 86.0885 18.9365 86.3721 18.6318C86.6556 18.3271 86.9772 18.0965 87.3369 17.9399C87.6966 17.7834 88.069 17.7051 88.4541 17.7051C88.945 17.7051 89.3682 17.7897 89.7236 17.959C90.0833 18.1283 90.3774 18.3652 90.606 18.6699C90.8345 18.9704 91.0037 19.3258 91.1138 19.7363C91.2238 20.1426 91.2788 20.5869 91.2788 21.0693V21.5962H86.1499V20.6377H90.1045V20.5488C90.0876 20.2441 90.0241 19.9479 89.9141 19.6602C89.8083 19.3724 89.639 19.1354 89.4062 18.9492C89.1735 18.763 88.8561 18.6699 88.4541 18.6699C88.1875 18.6699 87.9421 18.7271 87.7178 18.8413C87.4935 18.9513 87.3009 19.1164 87.1401 19.3364C86.9793 19.5565 86.8545 19.8252 86.7656 20.1426C86.6768 20.46 86.6323 20.826 86.6323 21.2407V21.5073C86.6323 21.8332 86.6768 22.14 86.7656 22.4277C86.8587 22.7113 86.992 22.9609 87.1655 23.1768C87.3433 23.3926 87.557 23.5618 87.8066 23.6846C88.0605 23.8073 88.3483 23.8687 88.6699 23.8687C89.0846 23.8687 89.4359 23.784 89.7236 23.6147C90.0114 23.4455 90.2632 23.2191 90.479 22.9355L91.1899 23.5005C91.0418 23.7248 90.8535 23.9385 90.625 24.1416C90.3965 24.3447 90.1151 24.5098 89.7808 24.6367C89.4507 24.7637 89.0592 24.8271 88.6064 24.8271ZM95.5254 17.832V18.7334H91.812V17.832H95.5254ZM93.0688 16.1626H94.2432V22.999C94.2432 23.2318 94.2791 23.4074 94.3511 23.5259C94.423 23.6444 94.5161 23.7227 94.6304 23.7607C94.7446 23.7988 94.8674 23.8179 94.9985 23.8179C95.0959 23.8179 95.1974 23.8094 95.3032 23.7925C95.4132 23.7713 95.4958 23.7544 95.5508 23.7417L95.5571 24.7002C95.464 24.7298 95.3413 24.7573 95.189 24.7827C95.0409 24.8123 94.861 24.8271 94.6494 24.8271C94.3617 24.8271 94.0972 24.77 93.856 24.6558C93.6147 24.5415 93.4222 24.3511 93.2783 24.0845C93.1387 23.8136 93.0688 23.4497 93.0688 22.9927V16.1626ZM101.403 17.832V24.7002H100.223V17.832H101.403ZM100.134 16.0103C100.134 15.8198 100.191 15.659 100.305 15.5278C100.424 15.3966 100.597 15.3311 100.826 15.3311C101.05 15.3311 101.221 15.3966 101.34 15.5278C101.463 15.659 101.524 15.8198 101.524 16.0103C101.524 16.1922 101.463 16.3488 101.34 16.48C101.221 16.6069 101.05 16.6704 100.826 16.6704C100.597 16.6704 100.424 16.6069 100.305 16.48C100.191 16.3488 100.134 16.1922 100.134 16.0103ZM104.463 19.2983V24.7002H103.289V17.832H104.399L104.463 19.2983ZM104.184 21.0059L103.695 20.9868C103.699 20.5171 103.769 20.0833 103.904 19.6855C104.04 19.2835 104.23 18.9344 104.476 18.6382C104.721 18.342 105.013 18.1134 105.352 17.9526C105.694 17.7876 106.073 17.7051 106.488 17.7051C106.826 17.7051 107.131 17.7516 107.402 17.8447C107.673 17.9336 107.903 18.0775 108.094 18.2764C108.288 18.4753 108.437 18.7334 108.538 19.0508C108.64 19.3639 108.69 19.7469 108.69 20.1997V24.7002H107.51V20.187C107.51 19.8273 107.457 19.5396 107.351 19.3237C107.245 19.1037 107.091 18.945 106.888 18.8477C106.685 18.7461 106.435 18.6953 106.139 18.6953C105.847 18.6953 105.58 18.7567 105.339 18.8794C105.102 19.0021 104.897 19.1714 104.723 19.3872C104.554 19.603 104.421 19.8506 104.323 20.1299C104.23 20.4049 104.184 20.6969 104.184 21.0059ZM113.388 21.3423V21.1963C113.388 20.7012 113.46 20.242 113.604 19.8188C113.747 19.3914 113.955 19.0212 114.226 18.708C114.496 18.3906 114.824 18.1452 115.209 17.9717C115.595 17.7939 116.026 17.7051 116.504 17.7051C116.987 17.7051 117.421 17.7939 117.806 17.9717C118.195 18.1452 118.525 18.3906 118.796 18.708C119.071 19.0212 119.28 19.3914 119.424 19.8188C119.568 20.242 119.64 20.7012 119.64 21.1963V21.3423C119.64 21.8374 119.568 22.2965 119.424 22.7197C119.28 23.1429 119.071 23.5132 118.796 23.8306C118.525 24.1437 118.197 24.3892 117.812 24.5669C117.431 24.7404 117 24.8271 116.517 24.8271C116.035 24.8271 115.601 24.7404 115.216 24.5669C114.831 24.3892 114.501 24.1437 114.226 23.8306C113.955 23.5132 113.747 23.1429 113.604 22.7197C113.46 22.2965 113.388 21.8374 113.388 21.3423ZM114.562 21.1963V21.3423C114.562 21.6851 114.602 22.0088 114.683 22.3135C114.763 22.6139 114.884 22.8805 115.044 23.1133C115.209 23.346 115.415 23.5301 115.66 23.6655C115.906 23.7967 116.191 23.8623 116.517 23.8623C116.839 23.8623 117.12 23.7967 117.361 23.6655C117.607 23.5301 117.81 23.346 117.971 23.1133C118.132 22.8805 118.252 22.6139 118.333 22.3135C118.417 22.0088 118.459 21.6851 118.459 21.3423V21.1963C118.459 20.8577 118.417 20.5382 118.333 20.2378C118.252 19.9331 118.129 19.6644 117.964 19.4316C117.804 19.1947 117.6 19.0085 117.355 18.873C117.114 18.7376 116.83 18.6699 116.504 18.6699C116.183 18.6699 115.899 18.7376 115.654 18.873C115.413 19.0085 115.209 19.1947 115.044 19.4316C114.884 19.6644 114.763 19.9331 114.683 20.2378C114.602 20.5382 114.562 20.8577 114.562 21.1963ZM122.287 19.2983V24.7002H121.113V17.832H122.224L122.287 19.2983ZM122.008 21.0059L121.519 20.9868C121.523 20.5171 121.593 20.0833 121.729 19.6855C121.864 19.2835 122.054 18.9344 122.3 18.6382C122.545 18.342 122.837 18.1134 123.176 17.9526C123.519 17.7876 123.897 17.7051 124.312 17.7051C124.651 17.7051 124.955 17.7516 125.226 17.8447C125.497 17.9336 125.728 18.0775 125.918 18.2764C126.113 18.4753 126.261 18.7334 126.362 19.0508C126.464 19.3639 126.515 19.7469 126.515 20.1997V24.7002H125.334V20.187C125.334 19.8273 125.281 19.5396 125.175 19.3237C125.069 19.1037 124.915 18.945 124.712 18.8477C124.509 18.7461 124.259 18.6953 123.963 18.6953C123.671 18.6953 123.404 18.7567 123.163 18.8794C122.926 19.0021 122.721 19.1714 122.547 19.3872C122.378 19.603 122.245 19.8506 122.147 20.1299C122.054 20.4049 122.008 20.6969 122.008 21.0059Z" fill="white"/>
<path d="M85.8906 40.6777V45.0215C85.7292 45.235 85.4766 45.4694 85.1328 45.7246C84.7943 45.9746 84.3438 46.1908 83.7812 46.373C83.2188 46.5553 82.5182 46.6465 81.6797 46.6465C80.9661 46.6465 80.3125 46.5267 79.7188 46.2871C79.125 46.0423 78.612 45.6855 78.1797 45.2168C77.7526 44.748 77.4219 44.1777 77.1875 43.5059C76.9531 42.8288 76.8359 42.0579 76.8359 41.1934V40.4043C76.8359 39.5449 76.9427 38.7793 77.1562 38.1074C77.375 37.4303 77.6875 36.8574 78.0938 36.3887C78.5 35.9199 78.9896 35.5658 79.5625 35.3262C80.1406 35.0814 80.7943 34.959 81.5234 34.959C82.4557 34.959 83.2266 35.1152 83.8359 35.4277C84.4505 35.735 84.9245 36.1621 85.2578 36.709C85.5911 37.2559 85.8021 37.8809 85.8906 38.584H83.9688C83.9062 38.1882 83.7839 37.834 83.6016 37.5215C83.4245 37.209 83.1693 36.9642 82.8359 36.7871C82.5078 36.6048 82.0807 36.5137 81.5547 36.5137C81.1016 36.5137 80.7031 36.5996 80.3594 36.7715C80.0156 36.9434 79.7292 37.196 79.5 37.5293C79.276 37.8626 79.1068 38.2689 78.9922 38.748C78.8776 39.2272 78.8203 39.7741 78.8203 40.3887V41.1934C78.8203 41.8184 78.8854 42.373 79.0156 42.8574C79.151 43.3418 79.3438 43.7507 79.5938 44.084C79.849 44.4173 80.1589 44.6699 80.5234 44.8418C80.888 45.0085 81.2995 45.0918 81.7578 45.0918C82.2057 45.0918 82.5729 45.0553 82.8594 44.9824C83.1458 44.9043 83.3724 44.8132 83.5391 44.709C83.7109 44.5996 83.8438 44.4954 83.9375 44.3965V42.1387H81.5703V40.6777H85.8906ZM87.5156 42.3574V42.1777C87.5156 41.5684 87.6042 41.0033 87.7812 40.4824C87.9583 39.9564 88.2135 39.5007 88.5469 39.1152C88.8854 38.7246 89.2969 38.4225 89.7812 38.209C90.2708 37.9902 90.8229 37.8809 91.4375 37.8809C92.0573 37.8809 92.6094 37.9902 93.0938 38.209C93.5833 38.4225 93.9974 38.7246 94.3359 39.1152C94.6745 39.5007 94.9323 39.9564 95.1094 40.4824C95.2865 41.0033 95.375 41.5684 95.375 42.1777V42.3574C95.375 42.9668 95.2865 43.5319 95.1094 44.0527C94.9323 44.5736 94.6745 45.0293 94.3359 45.4199C93.9974 45.8053 93.5859 46.1074 93.1016 46.3262C92.6172 46.5397 92.0677 46.6465 91.4531 46.6465C90.8333 46.6465 90.2786 46.5397 89.7891 46.3262C89.3047 46.1074 88.8932 45.8053 88.5547 45.4199C88.2161 45.0293 87.9583 44.5736 87.7812 44.0527C87.6042 43.5319 87.5156 42.9668 87.5156 42.3574ZM89.3984 42.1777V42.3574C89.3984 42.7376 89.4375 43.097 89.5156 43.4355C89.5938 43.7741 89.7161 44.071 89.8828 44.3262C90.0495 44.5814 90.263 44.7819 90.5234 44.9277C90.7839 45.0736 91.0938 45.1465 91.4531 45.1465C91.8021 45.1465 92.1042 45.0736 92.3594 44.9277C92.6198 44.7819 92.8333 44.5814 93 44.3262C93.1667 44.071 93.2891 43.7741 93.3672 43.4355C93.4505 43.097 93.4922 42.7376 93.4922 42.3574V42.1777C93.4922 41.8027 93.4505 41.4486 93.3672 41.1152C93.2891 40.7767 93.1641 40.4772 92.9922 40.2168C92.8255 39.9564 92.612 39.7533 92.3516 39.6074C92.0964 39.4564 91.7917 39.3809 91.4375 39.3809C91.0833 39.3809 90.776 39.4564 90.5156 39.6074C90.2604 39.7533 90.0495 39.9564 89.8828 40.2168C89.7161 40.4772 89.5938 40.7767 89.5156 41.1152C89.4375 41.4486 89.3984 41.8027 89.3984 42.1777ZM96.5938 42.3574V42.1777C96.5938 41.5684 96.6823 41.0033 96.8594 40.4824C97.0365 39.9564 97.2917 39.5007 97.625 39.1152C97.9635 38.7246 98.375 38.4225 98.8594 38.209C99.349 37.9902 99.901 37.8809 100.516 37.8809C101.135 37.8809 101.688 37.9902 102.172 38.209C102.661 38.4225 103.076 38.7246 103.414 39.1152C103.753 39.5007 104.01 39.9564 104.188 40.4824C104.365 41.0033 104.453 41.5684 104.453 42.1777V42.3574C104.453 42.9668 104.365 43.5319 104.188 44.0527C104.01 44.5736 103.753 45.0293 103.414 45.4199C103.076 45.8053 102.664 46.1074 102.18 46.3262C101.695 46.5397 101.146 46.6465 100.531 46.6465C99.9115 46.6465 99.3568 46.5397 98.8672 46.3262C98.3828 46.1074 97.9714 45.8053 97.6328 45.4199C97.2943 45.0293 97.0365 44.5736 96.8594 44.0527C96.6823 43.5319 96.5938 42.9668 96.5938 42.3574ZM98.4766 42.1777V42.3574C98.4766 42.7376 98.5156 43.097 98.5938 43.4355C98.6719 43.7741 98.7943 44.071 98.9609 44.3262C99.1276 44.5814 99.3411 44.7819 99.6016 44.9277C99.862 45.0736 100.172 45.1465 100.531 45.1465C100.88 45.1465 101.182 45.0736 101.438 44.9277C101.698 44.7819 101.911 44.5814 102.078 44.3262C102.245 44.071 102.367 43.7741 102.445 43.4355C102.529 43.097 102.57 42.7376 102.57 42.3574V42.1777C102.57 41.8027 102.529 41.4486 102.445 41.1152C102.367 40.7767 102.242 40.4772 102.07 40.2168C101.904 39.9564 101.69 39.7533 101.43 39.6074C101.174 39.4564 100.87 39.3809 100.516 39.3809C100.161 39.3809 99.8542 39.4564 99.5938 39.6074C99.3385 39.7533 99.1276 39.9564 98.9609 40.2168C98.7943 40.4772 98.6719 40.7767 98.5938 41.1152C98.5156 41.4486 98.4766 41.8027 98.4766 42.1777ZM111.445 38.0371H113.156V46.2559C113.156 47.0163 112.995 47.6621 112.672 48.1934C112.349 48.7246 111.898 49.1283 111.32 49.4043C110.742 49.6855 110.073 49.8262 109.312 49.8262C108.99 49.8262 108.63 49.7793 108.234 49.6855C107.844 49.5918 107.464 49.4408 107.094 49.2324C106.729 49.0293 106.424 48.7611 106.18 48.4277L107.062 47.3184C107.365 47.6777 107.698 47.9408 108.062 48.1074C108.427 48.2741 108.81 48.3574 109.211 48.3574C109.643 48.3574 110.01 48.2767 110.312 48.1152C110.62 47.959 110.857 47.7272 111.023 47.4199C111.19 47.1126 111.273 46.7376 111.273 46.2949V39.9512L111.445 38.0371ZM105.703 42.3574V42.1934C105.703 41.5527 105.781 40.9694 105.938 40.4434C106.094 39.9121 106.318 39.4564 106.609 39.0762C106.901 38.6908 107.255 38.3965 107.672 38.1934C108.089 37.985 108.56 37.8809 109.086 37.8809C109.633 37.8809 110.099 37.9798 110.484 38.1777C110.875 38.3757 111.201 38.6595 111.461 39.0293C111.721 39.3939 111.924 39.8314 112.07 40.3418C112.221 40.847 112.333 41.4095 112.406 42.0293V42.5527C112.339 43.1569 112.224 43.709 112.062 44.209C111.901 44.709 111.688 45.1413 111.422 45.5059C111.156 45.8704 110.828 46.1517 110.438 46.3496C110.052 46.5475 109.596 46.6465 109.07 46.6465C108.555 46.6465 108.089 46.5397 107.672 46.3262C107.26 46.1126 106.906 45.8132 106.609 45.4277C106.318 45.0423 106.094 44.5892 105.938 44.0684C105.781 43.5423 105.703 42.972 105.703 42.3574ZM107.586 42.1934V42.3574C107.586 42.7428 107.622 43.1022 107.695 43.4355C107.773 43.7689 107.891 44.0632 108.047 44.3184C108.208 44.5684 108.411 44.7663 108.656 44.9121C108.906 45.0527 109.201 45.123 109.539 45.123C109.982 45.123 110.344 45.0293 110.625 44.8418C110.911 44.6543 111.13 44.4017 111.281 44.084C111.438 43.7611 111.547 43.4017 111.609 43.0059V41.5918C111.578 41.2845 111.513 40.998 111.414 40.7324C111.32 40.4668 111.193 40.235 111.031 40.0371C110.87 39.834 110.667 39.6777 110.422 39.5684C110.177 39.4538 109.888 39.3965 109.555 39.3965C109.216 39.3965 108.922 39.4694 108.672 39.6152C108.422 39.7611 108.216 39.9616 108.055 40.2168C107.898 40.472 107.781 40.7689 107.703 41.1074C107.625 41.446 107.586 41.8079 107.586 42.1934ZM117.125 34.4902V46.4902H115.234V34.4902H117.125ZM122.914 46.6465C122.289 46.6465 121.724 46.5449 121.219 46.3418C120.719 46.1335 120.292 45.8444 119.938 45.4746C119.589 45.1048 119.32 44.6699 119.133 44.1699C118.945 43.6699 118.852 43.1309 118.852 42.5527V42.2402C118.852 41.5788 118.948 40.9798 119.141 40.4434C119.333 39.9069 119.602 39.4486 119.945 39.0684C120.289 38.6829 120.695 38.3887 121.164 38.1855C121.633 37.9824 122.141 37.8809 122.688 37.8809C123.292 37.8809 123.82 37.9824 124.273 38.1855C124.727 38.3887 125.102 38.6751 125.398 39.0449C125.701 39.4095 125.924 39.8444 126.07 40.3496C126.221 40.8548 126.297 41.4121 126.297 42.0215V42.8262H119.766V41.4746H124.438V41.3262C124.427 40.9876 124.359 40.6699 124.234 40.373C124.115 40.0762 123.93 39.8366 123.68 39.6543C123.43 39.472 123.096 39.3809 122.68 39.3809C122.367 39.3809 122.089 39.4486 121.844 39.584C121.604 39.7142 121.404 39.9043 121.242 40.1543C121.081 40.4043 120.956 40.7064 120.867 41.0605C120.784 41.4095 120.742 41.8027 120.742 42.2402V42.5527C120.742 42.9225 120.792 43.2663 120.891 43.584C120.995 43.8965 121.146 44.1699 121.344 44.4043C121.542 44.6387 121.781 44.8236 122.062 44.959C122.344 45.0892 122.664 45.1543 123.023 45.1543C123.477 45.1543 123.88 45.0632 124.234 44.8809C124.589 44.6986 124.896 44.4408 125.156 44.1074L126.148 45.0684C125.966 45.334 125.729 45.5892 125.438 45.834C125.146 46.0736 124.789 46.2689 124.367 46.4199C123.951 46.571 123.466 46.6465 122.914 46.6465ZM136.258 42.248H133.297V40.6934H136.258C136.773 40.6934 137.19 40.61 137.508 40.4434C137.826 40.2767 138.057 40.0475 138.203 39.7559C138.354 39.459 138.43 39.1204 138.43 38.7402C138.43 38.3809 138.354 38.0449 138.203 37.7324C138.057 37.4147 137.826 37.1595 137.508 36.9668C137.19 36.7741 136.773 36.6777 136.258 36.6777H133.898V46.4902H131.938V35.1152H136.258C137.138 35.1152 137.885 35.2715 138.5 35.584C139.12 35.8913 139.591 36.3184 139.914 36.8652C140.237 37.4069 140.398 38.0267 140.398 38.7246C140.398 39.459 140.237 40.0892 139.914 40.6152C139.591 41.1413 139.12 41.5449 138.5 41.8262C137.885 42.1074 137.138 42.248 136.258 42.248ZM143.984 34.4902V46.4902H142.094V34.4902H143.984ZM150.812 44.7949V40.7637C150.812 40.4616 150.758 40.2012 150.648 39.9824C150.539 39.7637 150.372 39.5944 150.148 39.4746C149.93 39.3548 149.654 39.2949 149.32 39.2949C149.013 39.2949 148.747 39.347 148.523 39.4512C148.299 39.5553 148.125 39.696 148 39.873C147.875 40.0501 147.812 40.2507 147.812 40.4746H145.938C145.938 40.1413 146.018 39.8184 146.18 39.5059C146.341 39.1934 146.576 38.9147 146.883 38.6699C147.19 38.4251 147.557 38.2324 147.984 38.0918C148.411 37.9512 148.891 37.8809 149.422 37.8809C150.057 37.8809 150.62 37.9876 151.109 38.2012C151.604 38.4147 151.992 38.7376 152.273 39.1699C152.56 39.597 152.703 40.1335 152.703 40.7793V44.5371C152.703 44.9225 152.729 45.2689 152.781 45.5762C152.839 45.8783 152.919 46.1413 153.023 46.3652V46.4902H151.094C151.005 46.2871 150.935 46.0293 150.883 45.7168C150.836 45.3991 150.812 45.0918 150.812 44.7949ZM151.086 41.3496L151.102 42.5137H149.75C149.401 42.5137 149.094 42.5475 148.828 42.6152C148.562 42.6777 148.341 42.7715 148.164 42.8965C147.987 43.0215 147.854 43.1725 147.766 43.3496C147.677 43.5267 147.633 43.7272 147.633 43.9512C147.633 44.1751 147.685 44.3809 147.789 44.5684C147.893 44.7507 148.044 44.8939 148.242 44.998C148.445 45.1022 148.69 45.1543 148.977 45.1543C149.362 45.1543 149.698 45.0762 149.984 44.9199C150.276 44.7585 150.505 44.5632 150.672 44.334C150.839 44.0996 150.927 43.8783 150.938 43.6699L151.547 44.5059C151.484 44.7194 151.378 44.9486 151.227 45.1934C151.076 45.4382 150.878 45.6725 150.633 45.8965C150.393 46.1152 150.104 46.2949 149.766 46.4355C149.432 46.5762 149.047 46.6465 148.609 46.6465C148.057 46.6465 147.565 46.5371 147.133 46.3184C146.701 46.0944 146.362 45.7949 146.117 45.4199C145.872 45.0397 145.75 44.61 145.75 44.1309C145.75 43.6829 145.833 43.2871 146 42.9434C146.172 42.5944 146.422 42.3027 146.75 42.0684C147.083 41.834 147.49 41.6569 147.969 41.5371C148.448 41.4121 148.995 41.3496 149.609 41.3496H151.086ZM157 45.5684L159.297 38.0371H161.312L157.922 47.7793C157.844 47.9876 157.742 48.2142 157.617 48.459C157.492 48.7038 157.328 48.9355 157.125 49.1543C156.927 49.3783 156.68 49.5579 156.383 49.6934C156.086 49.834 155.727 49.9043 155.305 49.9043C155.138 49.9043 154.977 49.8887 154.82 49.8574C154.669 49.8314 154.526 49.8027 154.391 49.7715L154.383 48.334C154.435 48.3392 154.497 48.3444 154.57 48.3496C154.648 48.3548 154.711 48.3574 154.758 48.3574C155.07 48.3574 155.331 48.3184 155.539 48.2402C155.747 48.1673 155.917 48.0475 156.047 47.8809C156.182 47.7142 156.297 47.4902 156.391 47.209L157 45.5684ZM155.703 38.0371L157.711 44.3652L158.047 46.3496L156.742 46.6855L153.672 38.0371H155.703Z" fill="white"/>
<defs>
<clipPath id="clip0_2_4059">
<rect width="20" height="23" fill="white" transform="translate(25 21.1699)"/>
</clipPath>
</defs>
</svg>
