<svg width="150" height="43" viewBox="0 0 150 43" fill="none" xmlns="http://www.w3.org/2000/svg">
<g clip-path="url(#clip0_2_3582)">
<g clip-path="url(#clip1_2_3582)">
<g clip-path="url(#clip2_2_3582)">
<path fill-rule="evenodd" clip-rule="evenodd" d="M18.3353 11.5518L18.3265 42.0333L21.5809 42.0242L21.5719 31.3844L27.3211 31.3754L27.312 42.0242H30.7184V0.675293L27.3029 2.93996L27.2987 28.1603L21.6077 28.1414L21.6122 5.93603L0 18.4376L0.0290845 35.5741L3.44454 35.5834L3.44896 20.3335L18.3353 11.5518Z" fill="#1A1A1A"/>
<path fill-rule="evenodd" clip-rule="evenodd" d="M12.4255 41.8816V18.7256L9.06442 20.6955L9.13537 38.737L0.0517352 38.6656L0.00683594 41.8636L12.4255 41.8816Z" fill="#1A1A1A"/>
<path d="M54.2943 24.7364V13.537H57.0442V24.7364C57.0442 25.7988 56.8169 26.7037 56.3622 27.451C55.9076 28.1984 55.288 28.7699 54.5033 29.1656C53.7187 29.5613 52.8278 29.7591 51.8305 29.7591C50.8112 29.7591 49.9055 29.5869 49.1136 29.2425C48.3289 28.8982 47.7131 28.3706 47.2657 27.6598C46.8184 26.9491 46.5947 26.0479 46.5947 24.9562H49.3666C49.3666 25.5863 49.4656 26.0956 49.6636 26.4838C49.8689 26.8649 50.1549 27.1433 50.5215 27.3192C50.8955 27.4877 51.3318 27.5719 51.8305 27.5719C52.3071 27.5719 52.7288 27.4657 53.0954 27.2532C53.4694 27.0335 53.7627 26.7147 53.9753 26.297C54.188 25.8721 54.2943 25.3519 54.2943 24.7364Z" fill="#1A1A1A"/>
<path d="M67.119 26.7367V17.6475H69.7808V29.5393H67.273L67.119 26.7367ZM67.493 24.2638L68.3839 24.2418C68.3839 25.0405 68.2959 25.7768 68.1199 26.4509C67.9439 27.1177 67.6726 27.7002 67.306 28.1984C66.9393 28.6893 66.47 29.074 65.898 29.3524C65.326 29.6235 64.6404 29.7591 63.8411 29.7591C63.2618 29.7591 62.7302 29.6748 62.2462 29.5063C61.7623 29.3377 61.3443 29.0776 60.9923 28.726C60.6476 28.3742 60.38 27.9163 60.1894 27.3521C59.9986 26.788 59.9033 26.1139 59.9033 25.3299V17.6475H62.5542V25.3519C62.5542 25.7842 62.6056 26.1469 62.7082 26.4399C62.8109 26.7256 62.9502 26.9565 63.1261 27.1323C63.3022 27.3082 63.5075 27.4327 63.7421 27.506C63.9768 27.5793 64.2261 27.6159 64.4901 27.6159C65.2454 27.6159 65.8393 27.4693 66.272 27.1763C66.712 26.8759 67.0237 26.4729 67.207 25.9673C67.3976 25.4617 67.493 24.8939 67.493 24.2638Z" fill="#1A1A1A"/>
<path d="M79.1749 26.319C79.1749 26.0552 79.1089 25.8171 78.9769 25.6046C78.8449 25.3848 78.5921 25.187 78.2179 25.0111C77.8519 24.8353 77.3089 24.6741 76.5904 24.5275C75.9596 24.3883 75.3806 24.2235 74.8524 24.033C74.3317 23.8351 73.8844 23.597 73.5104 23.3186C73.1364 23.0401 72.8468 22.7104 72.6414 22.3294C72.4362 21.9484 72.3335 21.5089 72.3335 21.0106C72.3335 20.527 72.4399 20.0691 72.6525 19.6368C72.8651 19.2045 73.1695 18.8235 73.5655 18.4938C73.9614 18.164 74.4417 17.9039 75.0064 17.7134C75.5786 17.5229 76.2161 17.4277 76.9203 17.4277C77.9178 17.4277 78.7721 17.5962 79.4831 17.9332C80.2016 18.2629 80.7514 18.7135 81.1331 19.285C81.5141 19.8493 81.7054 20.4867 81.7054 21.1975H79.0541C79.0541 20.8824 78.9731 20.5893 78.8119 20.3182C78.6581 20.0398 78.4233 19.8163 78.1083 19.6477C77.7926 19.4719 77.3966 19.384 76.9203 19.384C76.4658 19.384 76.0879 19.4572 75.7871 19.6038C75.4939 19.743 75.2741 19.9262 75.1271 20.1533C74.988 20.3805 74.9184 20.6296 74.9184 20.9007C74.9184 21.0985 74.9551 21.278 75.0281 21.4392C75.1091 21.5931 75.2411 21.736 75.4241 21.8679C75.6079 21.9924 75.8569 22.1096 76.1726 22.2196C76.4951 22.3294 76.8986 22.4357 77.3824 22.5382C78.2914 22.7287 79.0721 22.9742 79.7254 23.2747C80.3854 23.5677 80.8908 23.9487 81.2433 24.4177C81.5951 24.8793 81.7714 25.4654 81.7714 26.1761C81.7714 26.7037 81.6573 27.1873 81.4301 27.6269C81.2103 28.0592 80.8871 28.4365 80.4618 28.7589C80.0366 29.074 79.5274 29.3194 78.9334 29.4953C78.3469 29.6711 77.6868 29.7591 76.9533 29.7591C75.8756 29.7591 74.9623 29.5685 74.2144 29.1875C73.4665 28.7992 72.8981 28.3046 72.5095 27.7038C72.1282 27.0957 71.9375 26.4655 71.9375 25.8134H74.5004C74.5297 26.3044 74.6654 26.6964 74.9074 26.9894C75.1564 27.2752 75.4646 27.484 75.8314 27.6159C76.2056 27.7405 76.5904 27.8027 76.9864 27.8027C77.4626 27.8027 77.8624 27.7405 78.1849 27.6159C78.5081 27.484 78.7533 27.3082 78.9221 27.0883C79.0908 26.8612 79.1749 26.6047 79.1749 26.319Z" fill="#1A1A1A"/>
<path d="M89.5474 17.6475V19.5818H82.8379V17.6475H89.5474ZM84.7736 14.735H87.4249V26.2531C87.4249 26.6194 87.4759 26.9015 87.5786 27.0994C87.6889 27.2899 87.8389 27.418 88.0294 27.484C88.2206 27.55 88.4441 27.583 88.7006 27.583C88.8836 27.583 89.0599 27.5719 89.2286 27.55C89.3974 27.528 89.5331 27.506 89.6359 27.484L89.6464 29.5063C89.4266 29.5722 89.1701 29.6308 88.8769 29.6821C88.5904 29.7334 88.2604 29.7591 87.8869 29.7591C87.2779 29.7591 86.7394 29.6528 86.2699 29.4403C85.8004 29.2205 85.4336 28.8652 85.1696 28.3742C84.9056 27.8833 84.7736 27.2312 84.7736 26.4179V14.735Z" fill="#1A1A1A"/>
<path d="M102.439 20.2192V22.4064H93.9364V20.2192H102.439ZM94.6182 13.537V29.5393H91.8574V13.537H94.6182ZM104.562 13.537V29.5393H101.812V13.537H104.562Z" fill="#1A1A1A"/>
<path d="M107.08 23.7253V23.4724C107.08 22.6152 107.205 21.8202 107.454 21.0875C107.703 20.3475 108.063 19.7064 108.532 19.1642C109.008 18.6147 109.588 18.1897 110.27 17.8893C110.959 17.5816 111.736 17.4277 112.602 17.4277C113.474 17.4277 114.252 17.5816 114.933 17.8893C115.623 18.1897 116.206 18.6147 116.682 19.1642C117.159 19.7064 117.522 20.3475 117.771 21.0875C118.02 21.8202 118.146 22.6152 118.146 23.4724V23.7253C118.146 24.5825 118.02 25.3775 117.771 26.1102C117.522 26.8429 117.159 27.484 116.682 28.0336C116.206 28.5757 115.626 29.0007 114.945 29.3084C114.263 29.6089 113.489 29.7591 112.623 29.7591C111.751 29.7591 110.97 29.6089 110.28 29.3084C109.599 29.0007 109.02 28.5757 108.543 28.0336C108.066 27.484 107.703 26.8429 107.454 26.1102C107.205 25.3775 107.08 24.5825 107.08 23.7253ZM109.731 23.4724V23.7253C109.731 24.2601 109.786 24.7657 109.896 25.2419C110.006 25.7182 110.178 26.1358 110.412 26.4949C110.647 26.8539 110.948 27.136 111.315 27.3412C111.681 27.5463 112.118 27.6489 112.623 27.6489C113.115 27.6489 113.54 27.5463 113.9 27.3412C114.266 27.136 114.567 26.8539 114.801 26.4949C115.036 26.1358 115.209 25.7182 115.318 25.2419C115.436 24.7657 115.494 24.2601 115.494 23.7253V23.4724C115.494 22.9449 115.436 22.4467 115.318 21.9778C115.209 21.5015 115.032 21.0802 114.791 20.7139C114.556 20.3475 114.255 20.0617 113.889 19.8566C113.529 19.6441 113.1 19.5379 112.602 19.5379C112.103 19.5379 111.67 19.6441 111.303 19.8566C110.944 20.0617 110.647 20.3475 110.412 20.7139C110.178 21.0802 110.006 21.5015 109.896 21.9778C109.786 22.4467 109.731 22.9449 109.731 23.4724Z" fill="#1A1A1A"/>
<path d="M123.018 20.0654V29.5393H120.367V17.6475H122.864L123.018 20.0654ZM122.589 23.1538L121.687 23.1427C121.687 22.3222 121.79 21.5638 121.995 20.8677C122.2 20.1716 122.501 19.5672 122.897 19.0543C123.293 18.5341 123.784 18.1348 124.371 17.8563C124.965 17.5705 125.651 17.4277 126.428 17.4277C126.971 17.4277 127.465 17.5083 127.913 17.6695C128.367 17.8234 128.76 18.0688 129.09 18.4058C129.427 18.7429 129.684 19.1752 129.86 19.7027C130.043 20.2303 130.134 20.8677 130.134 21.6151V29.5393H127.484V21.8458C127.484 21.2671 127.396 20.8128 127.22 20.483C127.051 20.1533 126.806 19.9189 126.483 19.7797C126.168 19.6331 125.79 19.5598 125.35 19.5598C124.851 19.5598 124.426 19.6551 124.074 19.8456C123.729 20.0361 123.447 20.2962 123.227 20.6259C123.007 20.9557 122.846 21.3367 122.743 21.769C122.64 22.2013 122.589 22.6628 122.589 23.1538ZM129.969 22.4503L128.727 22.7251C128.727 22.0071 128.826 21.3293 129.024 20.6919C129.229 20.0471 129.526 19.4829 129.915 18.9993C130.311 18.5084 130.798 18.1237 131.378 17.8453C131.957 17.5669 132.621 17.4277 133.368 17.4277C133.977 17.4277 134.52 17.512 134.997 17.6805C135.48 17.8417 135.891 18.0981 136.228 18.4498C136.566 18.8015 136.822 19.2595 136.998 19.8236C137.175 20.3805 137.262 21.0546 137.262 21.8458V29.5393H134.601V21.8349C134.601 21.2341 134.512 20.7688 134.337 20.4391C134.168 20.1094 133.926 19.8823 133.611 19.7577C133.295 19.6258 132.918 19.5598 132.477 19.5598C132.067 19.5598 131.704 19.6368 131.388 19.7906C131.081 19.9372 130.821 20.146 130.608 20.4171C130.395 20.6809 130.233 20.9849 130.124 21.3293C130.021 21.6737 129.969 22.0474 129.969 22.4503Z" fill="#1A1A1A"/>
<path d="M145.238 29.7591C144.357 29.7591 143.562 29.6162 142.851 29.3304C142.147 29.0374 141.546 28.6307 141.047 28.1104C140.556 27.5902 140.178 26.9785 139.914 26.275C139.65 25.5717 139.518 24.8133 139.518 24V23.5604C139.518 22.6299 139.653 21.7873 139.925 21.0325C140.196 20.2779 140.574 19.6331 141.058 19.0982C141.542 18.556 142.114 18.142 142.774 17.8563C143.433 17.5705 144.149 17.4277 144.918 17.4277C145.77 17.4277 146.514 17.5705 147.152 17.8563C147.789 18.142 148.317 18.545 148.735 19.0653C149.16 19.5781 149.476 20.19 149.682 20.9007C149.894 21.6114 150 22.3954 150 23.2527V24.3847H140.805V22.4833H147.383V22.2745C147.368 21.7982 147.273 21.3513 147.096 20.9337C146.928 20.516 146.667 20.179 146.316 19.9225C145.964 19.6661 145.494 19.5379 144.908 19.5379C144.468 19.5379 144.075 19.6331 143.73 19.8236C143.394 20.0068 143.111 20.2742 142.884 20.6259C142.656 20.9776 142.48 21.4026 142.356 21.9008C142.239 22.3918 142.18 22.9449 142.18 23.5604V24C142.18 24.5203 142.249 25.0038 142.389 25.4508C142.536 25.8904 142.748 26.275 143.027 26.6047C143.305 26.9345 143.643 27.1946 144.039 27.3851C144.435 27.5683 144.885 27.6598 145.392 27.6598C146.03 27.6598 146.598 27.5317 147.096 27.2752C147.595 27.0187 148.028 26.656 148.395 26.1871L149.791 27.5389C149.535 27.9127 149.201 28.2717 148.791 28.616C148.38 28.9531 147.877 29.2279 147.284 29.4403C146.697 29.6528 146.015 29.7591 145.238 29.7591Z" fill="#1A1A1A"/>
</g>
</g>
</g>
<defs>
<clipPath id="clip0_2_3582">
<rect width="150" height="42.75" fill="white"/>
</clipPath>
<clipPath id="clip1_2_3582">
<rect width="150" height="42.75" fill="white"/>
</clipPath>
<clipPath id="clip2_2_3582">
<rect width="150" height="42.75" fill="white"/>
</clipPath>
</defs>
</svg>
