<svg width="14" height="16" viewBox="0 0 14 16" fill="none" xmlns="http://www.w3.org/2000/svg">
<path d="M6.56 7.73333C7.62667 7.73333 8.53333 7.35111 9.28 6.58667C10.0267 5.82222 10.4 4.90667 10.4 3.84C10.4 2.77333 10.0267 1.86667 9.28 1.12C8.53333 0.373333 7.62667 0 6.56 0C5.49333 0 4.58667 0.373333 3.84 1.12C3.09333 1.86667 2.72 2.77333 2.72 3.84C2.72 4.90667 3.09333 5.82222 3.84 6.58667C4.58667 7.35111 5.49333 7.73333 6.56 7.73333ZM4.48 1.81333C5.04889 1.24444 5.73333 0.96 6.53333 0.96C7.33333 0.96 8.02667 1.24444 8.61333 1.81333C9.2 2.38222 9.49333 3.06667 9.49333 3.86667C9.49333 4.66667 9.20889 5.35111 8.64 5.92C8.07111 6.48889 7.37778 6.77333 6.56 6.77333C5.74222 6.77333 5.04889 6.48889 4.48 5.92C3.91111 5.35111 3.62667 4.66667 3.62667 3.86667C3.62667 3.06667 3.91111 2.38222 4.48 1.81333ZM13.28 12.32C13.28 12 13.2444 11.6533 13.1733 11.28C13.1022 10.9067 13.0133 10.5689 12.9067 10.2667C12.8 9.96444 12.6578 9.65333 12.48 9.33333C12.3022 9.01333 12.0978 8.73778 11.8667 8.50667C11.6356 8.27556 11.3422 8.08889 10.9867 7.94667C10.6311 7.80444 10.24 7.73333 9.81333 7.73333C9.67111 7.73333 9.45778 7.82222 9.17333 8L8.53333 8.42667C8.32 8.56889 8.03556 8.69333 7.68 8.8C7.32444 8.90667 6.97778 8.96 6.64 8.96C6.30222 8.96 5.95556 8.90667 5.6 8.8C5.24444 8.69333 4.97778 8.56889 4.8 8.42667L4.10667 8C3.85778 7.82222 3.66222 7.73333 3.52 7.73333C3.09333 7.73333 2.70222 7.80444 2.34667 7.94667C1.99111 8.08889 1.68889 8.27556 1.44 8.50667C1.19111 8.73778 0.977778 9.01333 0.8 9.33333C0.622222 9.65333 0.48 9.97333 0.373333 10.2933C0.266667 10.6133 0.186667 10.9511 0.133333 11.3067C0.08 11.6622 0.0444444 11.9911 0.0266667 12.2933C0.00888889 12.5956 0 12.9067 0 13.2267C0 14.08 0.257778 14.7556 0.773333 15.2533C1.28889 15.7511 1.97333 16 2.82667 16H10.5067C11.3244 16 12 15.7511 12.5333 15.2533C13.0667 14.7556 13.3333 14.08 13.3333 13.2267C13.3333 12.9067 13.3156 12.6044 13.28 12.32ZM11.8933 14.56C11.5378 14.88 11.0756 15.04 10.5067 15.04H2.82667C2.22222 15.04 1.75111 14.88 1.41333 14.56C1.07556 14.24 0.906667 13.7956 0.906667 13.2267L0.96 12.3733C0.96 12.0889 0.995556 11.7867 1.06667 11.4667C1.13778 11.1467 1.20889 10.8533 1.28 10.5867C1.35111 10.32 1.45778 10.0622 1.6 9.81333C1.74222 9.56444 1.90222 9.36 2.08 9.2C2.25778 9.04 2.46222 8.91556 2.69333 8.82667C2.92444 8.73778 3.16444 8.69333 3.41333 8.69333L4.26667 9.22667C4.55111 9.40444 4.90667 9.55556 5.33333 9.68C5.76 9.80444 6.19556 9.86667 6.64 9.86667C7.08444 9.86667 7.52889 9.80444 7.97333 9.68C8.41778 9.55556 8.76444 9.40444 9.01333 9.22667L9.86667 8.69333C10.1511 8.69333 10.4089 8.73778 10.64 8.82667C10.8711 8.91556 11.0667 9.04 11.2267 9.2C11.3867 9.36 11.5378 9.56444 11.68 9.81333C11.8222 10.0622 11.9378 10.32 12.0267 10.5867C12.1156 10.8533 12.1867 11.1467 12.24 11.4667C12.2933 11.7867 12.3378 12.0889 12.3733 12.3733V13.2267C12.3733 13.7956 12.2133 14.24 11.8933 14.56Z" fill="#1F4B43"/>
</svg>
